<svg xmlns="http://www.w3.org/2000/svg" width="200" height="200" viewBox="0 0 200 200">
  <rect width="200" height="200" rx="20" fill="#F5F3FF"/>
  <!-- engrenagem -->
  <circle cx="100" cy="95" r="38" fill="#8B5CF6"/>
  <circle cx="100" cy="95" r="21" fill="#F5F3FF"/>
  <!-- dentes -->
  <rect x="92" y="52" width="16" height="18" rx="6" fill="#8B5CF6"/>
  <rect x="92" y="125" width="16" height="18" rx="6" fill="#8B5CF6"/>
  <rect x="57" y="87" width="18" height="16" rx="6" fill="#8B5CF6"/>
  <rect x="125" y="87" width="18" height="16" rx="6" fill="#8B5CF6"/>
  <rect x="64" y="61" width="18" height="16" rx="6" fill="#8B5CF6" transform="rotate(45 73 69)"/>
  <rect x="118" y="61" width="18" height="16" rx="6" fill="#8B5CF6" transform="rotate(-45 127 69)"/>
  <rect x="64" y="110" width="18" height="16" rx="6" fill="#8B5CF6" transform="rotate(-45 73 118)"/>
  <rect x="118" y="110" width="18" height="16" rx="6" fill="#8B5CF6" transform="rotate(45 127 118)"/>
  <circle cx="100" cy="95" r="10" fill="#8B5CF6"/>
</svg>
